Coordinates
version=1
nRows=4
nColumns=63
inDegrees=yes

Units are S.I. units (second, meters, Newtons, ...)
If the header above contains a line with 'inDegrees', this indicates whether rotational values are in degrees (yes) or radians (no).

endheader
time	pelvis_tilt	pelvis_list	pelvis_rotation	pelvis_tx	pelvis_ty	pelvis_tz	hip_flexion_r	hip_adduction_r	hip_rotation_r	knee_angle_r	knee_angle_r_beta	ankle_angle_r	subtalar_angle_r	mtp_angle_r	hip_flexion_l	hip_adduction_l	hip_rotation_l	knee_angle_l	knee_angle_l_beta	ankle_angle_l	subtalar_angle_l	mtp_angle_l	L5_S1_Flex_Ext	L5_S1_Lat_Bending	L5_S1_axial_rotation	L4_L5_Flex_Ext	L4_L5_Lat_Bending	L4_L5_axial_rotation	L3_L4_Flex_Ext	L3_L4_Lat_Bending	L3_L4_axial_rotation	L2_L3_Flex_Ext	L2_L3_Lat_Bending	L2_L3_axial_rotation	L1_L2_Flex_Ext	L1_L2_Lat_Bending	L1_L2_axial_rotation	L1_T12_Flex_Ext	L1_T12_Lat_Bending	L1_T12_axial_rotation	Abs_r3	Abs_r2	Abs_r1	Abs_t1	Abs_t2	neck_flexion	neck_bending	neck_rotation	arm_flex_r	arm_add_r	arm_rot_r	elbow_flex_r	pro_sup_r	wrist_flex_r	wrist_dev_r	arm_flex_l	arm_add_l	arm_rot_l	elbow_flex_l	pro_sup_l	wrist_flex_l	wrist_dev_l
      3.09259259	     -0.34909124	      0.76244838	     94.65503399	      0.28030461	      0.69319536	      0.94379453	      0.42105981	     -0.19314104	     -2.67303249	      8.33357988	      0.14544841	     20.59736014	      4.71923301	      0.00000000	     -2.03694920	     -1.48326749	     -8.50979937	      4.63653738	      0.08092284	     19.08367103	      8.82414629	      0.00000000	     -0.16362270	     -0.01599001	     -1.53275330	     -0.30386372	     -0.02126671	     -1.62855038	     -0.26881573	     -0.03887811	     -1.62855038	     -0.18700438	     -0.03887811	     -1.34115914	     -0.15194004	     -0.03260683	     -1.24536206	     -0.09349401	     -0.02476852	     -1.14956497	     -1.16874059	     -0.18088218	     -8.52471402	      0.00000000	      0.00000000	      8.39965496	      1.94636880	     11.47507358	     61.81685726	     -9.68766084	     10.53153010	    149.55291059	     82.37295648	     15.19161719	     32.99898953	     -5.47780153	    -12.73994604	    -15.94003633	    131.14931196	     85.01014649	    -14.56126937	      8.36252838
      3.11111111	     -0.51362062	      0.53960886	     94.46153946	      0.28036539	      0.69323023	      0.94351028	      0.68351331	     -0.41898897	     -2.82062162	      8.43814132	      0.14727335	     20.50500075	      4.73435930	      0.00000000	     -1.88587505	     -1.25584558	     -8.57445855	      4.56010753	      0.07958889	     18.90786005	      8.72462466	      0.00000000	     -0.14161439	     -0.05258055	     -1.59492668	     -0.26299208	     -0.06993214	     -1.69460960	     -0.23265828	     -0.12784436	     -1.69460960	     -0.16185109	     -0.12784436	     -1.39556085	     -0.13150312	     -0.10722227	     -1.29587793	     -0.08091846	     -0.08144728	     -1.19619501	     -1.01153743	     -0.59480175	     -8.87050373	      0.00000000	      0.00000000	      8.86433915	      2.17049366	     11.13233771	     62.41302106	    -10.04483563	     10.42513267	    148.83202888	     82.51198435	     14.41726053	     33.43472008	     -6.26915488	    -11.96408451	    -15.65965395	    127.02652307	     83.99591645	    -14.83752064	      8.74119948
      3.12962963	     -0.57798381	      0.59989887	     94.10291911	      0.28084077	      0.69324232	      0.94317282	      0.72957061	     -0.56081755	     -3.50609081	      8.62085109	      0.15046224	     20.76279850	      5.95637273	      0.00000000	     -2.06487619	     -1.17556933	     -8.95829084	      4.45172245	      0.07769721	     18.94010721	      8.81085931	      0.00000000	     -0.15647405	     -0.07973029	     -1.56217533	     -0.29058797	     -0.10604128	     -1.65981129	     -0.25707122	     -0.19385623	     -1.65981129	     -0.17883420	     -0.19385623	     -1.36690342	     -0.14530181	     -0.16258601	     -1.26926746	     -0.08940927	     -0.12350222	     -1.17163150	     -1.11767852	     -0.90192498	     -8.68835055	      0.00000000	      0.00000000	      9.03981922	      1.98959140	      9.67336949	     62.91727437	    -11.69341713	     11.51218434	    148.17847799	     82.74367620	      8.01813427	     33.33945317	     -6.96887942	    -11.54721829	    -14.71758608	    123.24368244	     78.69037899	    -15.65386833	      8.64016558
      3.14814815	     -0.61300629	      0.62099390	     94.02761599	      0.28086453	      0.69305172	      0.94278272	      0.67757858	     -0.60272376	     -3.58810350	      8.51281325	      0.14857662	     20.87859754	      6.14382510	      0.00000000	     -2.18099991	     -1.12509523	     -8.96010540	      4.32091771	      0.07541424	     18.94335227	      8.76243454	      0.00000000	     -0.16355627	     -0.10098419	     -1.64204421	     -0.30374036	     -0.13430898	     -1.74467198	     -0.26870660	     -0.24553297	     -1.74467198	     -0.18692847	     -0.24553297	     -1.43678869	     -0.15187836	     -0.20592697	     -1.33416092	     -0.09345606	     -0.15642452	     -1.23153316	     -1.16826612	     -1.14235341	     -9.13255729	      0.00000000	      0.00000000	      8.98994383	      2.40810645	      9.13592264	     63.37877628	    -12.57683161	     11.36193867	    146.99641190	     81.83916161	      6.74269555	     33.08626072	     -8.23716744	    -10.63198546	    -15.04585041	    120.74781950	     75.51729786	    -16.04539256	     11.47217502
